<svg width="75" height="30" viewBox="0 0 75 30" fill="none" xmlns="http://www.w3.org/2000/svg">
<path d="M3.76609 11.48L0.646094 6.52L8.24609 0.999998H12.5661V29H6.56609V9.52L3.76609 11.48ZM19.8636 25.56C18.2103 23.0267 17.3836 19.5067 17.3836 15C17.3836 10.4933 18.1969 6.98666 19.8236 4.48C21.4769 1.94667 23.8903 0.68 27.0636 0.68C30.2103 0.68 32.6103 1.94667 34.2636 4.48C35.9169 7.01333 36.7436 10.52 36.7436 15C36.7436 19.5333 35.9303 23.0533 34.3036 25.56C32.6769 28.0667 30.2903 29.32 27.1436 29.32C23.9703 29.32 21.5436 28.0667 19.8636 25.56ZM23.7836 15C23.7836 20.8133 24.9036 23.72 27.1436 23.72C28.2903 23.72 29.1036 23.0667 29.5836 21.76C30.0903 20.4533 30.3436 18.2 30.3436 15C30.3436 11.8 30.0903 9.54667 29.5836 8.24C29.1036 6.93333 28.2636 6.28 27.0636 6.28C25.9169 6.28 25.0769 6.96 24.5436 8.32C24.0369 9.65333 23.7836 11.88 23.7836 15ZM41.5014 13.44C39.9281 12.0267 39.1414 10.2 39.1414 7.96C39.1414 5.69333 39.9281 3.89333 41.5014 2.56C43.0747 1.2 45.1014 0.52 47.5814 0.52C50.0614 0.52 52.0881 1.2 53.6614 2.56C55.2347 3.89333 56.0214 5.69333 56.0214 7.96C56.0214 10.2 55.2347 12.0267 53.6614 13.44C52.0881 14.8 50.0614 15.48 47.5814 15.48C45.1014 15.48 43.0747 14.8 41.5014 13.44ZM44.7414 7.96C44.7414 8.81333 45.0081 9.48 45.5414 9.96C46.0747 10.44 46.7547 10.68 47.5814 10.68C48.4614 10.68 49.1547 10.44 49.6614 9.96C50.1681 9.48 50.4214 8.81333 50.4214 7.96C50.4214 7.16 50.1547 6.52 49.6214 6.04C49.1147 5.56 48.4347 5.32 47.5814 5.32C46.7281 5.32 46.0347 5.56 45.5014 6.04C44.9947 6.52 44.7414 7.16 44.7414 7.96ZM60.0214 27.44C58.4481 26.0267 57.6614 24.2 57.6614 21.96C57.6614 19.6933 58.4481 17.8933 60.0214 16.56C61.5681 15.2 63.5947 14.52 66.1014 14.52C68.6081 14.52 70.6347 15.2 72.1814 16.56C73.7547 17.8933 74.5414 19.6933 74.5414 21.96C74.5414 24.2 73.7547 26.0267 72.1814 27.44C70.6347 28.8 68.6081 29.48 66.1014 29.48C63.5947 29.48 61.5681 28.8 60.0214 27.44ZM63.2614 21.96C63.2614 22.8133 63.5281 23.48 64.0614 23.96C64.5947 24.44 65.2747 24.68 66.1014 24.68C66.9814 24.68 67.6747 24.44 68.1814 23.96C68.6881 23.48 68.9414 22.8133 68.9414 21.96C68.9414 21.16 68.6747 20.52 68.1414 20.04C67.6347 19.56 66.9547 19.32 66.1014 19.32C65.2481 19.32 64.5547 19.56 64.0214 20.04C63.5147 20.52 63.2614 21.16 63.2614 21.96ZM48.5814 29.48L45.1414 27.12L65.0214 0.52L68.3814 3.04L48.5814 29.48Z" fill="#2E2E2E"/>
</svg>
