<svg width="58" height="30" viewBox="0 0 58 30" fill="none" xmlns="http://www.w3.org/2000/svg">
<path d="M2.99985 16.68L4.91985 0.999998H18.7598V7H10.1998L9.63985 10.56H10.5998C13.1065 10.56 15.1865 11.3867 16.8398 13.04C18.5198 14.6667 19.3598 16.88 19.3598 19.68C19.3598 22.72 18.3998 25.12 16.4798 26.88C14.5332 28.6133 12.0932 29.48 9.15985 29.48C7.58651 29.48 6.01318 29.1467 4.43985 28.48C2.86651 27.7867 1.67985 26.8667 0.879847 25.72L4.23985 21.12C4.79985 21.7867 5.55985 22.3467 6.51985 22.8C7.50651 23.2533 8.43985 23.48 9.31985 23.48C10.3865 23.48 11.2532 23.16 11.9198 22.52C12.6132 21.8533 12.9598 21 12.9598 19.96C12.9598 18.76 12.4932 17.8 11.5598 17.08C10.6532 16.3333 9.39985 15.96 7.79985 15.96C5.58651 15.96 3.98651 16.2 2.99985 16.68ZM24.5086 13.44C22.9353 12.0267 22.1486 10.2 22.1486 7.96C22.1486 5.69333 22.9353 3.89333 24.5086 2.56C26.0819 1.2 28.1086 0.52 30.5886 0.52C33.0686 0.52 35.0953 1.2 36.6686 2.56C38.2419 3.89333 39.0286 5.69333 39.0286 7.96C39.0286 10.2 38.2419 12.0267 36.6686 13.44C35.0953 14.8 33.0686 15.48 30.5886 15.48C28.1086 15.48 26.0819 14.8 24.5086 13.44ZM27.7486 7.96C27.7486 8.81333 28.0153 9.48 28.5486 9.96C29.0819 10.44 29.7619 10.68 30.5886 10.68C31.4686 10.68 32.1619 10.44 32.6686 9.96C33.1753 9.48 33.4286 8.81333 33.4286 7.96C33.4286 7.16 33.1619 6.52 32.6286 6.04C32.1219 5.56 31.4419 5.32 30.5886 5.32C29.7353 5.32 29.0419 5.56 28.5086 6.04C28.0019 6.52 27.7486 7.16 27.7486 7.96ZM43.0286 27.44C41.4553 26.0267 40.6686 24.2 40.6686 21.96C40.6686 19.6933 41.4553 17.8933 43.0286 16.56C44.5753 15.2 46.6019 14.52 49.1086 14.52C51.6153 14.52 53.6419 15.2 55.1886 16.56C56.7619 17.8933 57.5486 19.6933 57.5486 21.96C57.5486 24.2 56.7619 26.0267 55.1886 27.44C53.6419 28.8 51.6153 29.48 49.1086 29.48C46.6019 29.48 44.5753 28.8 43.0286 27.44ZM46.2686 21.96C46.2686 22.8133 46.5353 23.48 47.0686 23.96C47.6019 24.44 48.2819 24.68 49.1086 24.68C49.9886 24.68 50.6819 24.44 51.1886 23.96C51.6953 23.48 51.9486 22.8133 51.9486 21.96C51.9486 21.16 51.6819 20.52 51.1486 20.04C50.6419 19.56 49.9619 19.32 49.1086 19.32C48.2553 19.32 47.5619 19.56 47.0286 20.04C46.5219 20.52 46.2686 21.16 46.2686 21.96ZM31.5886 29.48L28.1486 27.12L48.0286 0.52L51.3886 3.04L31.5886 29.48Z" fill="#2E2E2E"/>
</svg>
