<svg width="59" height="30" viewBox="0 0 59 30" fill="none" xmlns="http://www.w3.org/2000/svg">
<path d="M9.97884 11.6H10.4988C11.3522 11.6 12.0188 11.36 12.4988 10.88C12.9788 10.3733 13.2188 9.74664 13.2188 8.99997C13.2188 7.34664 12.1922 6.51997 10.1388 6.51997C9.17884 6.51997 8.4455 6.74663 7.93884 7.19997C7.43217 7.6533 7.17884 8.2533 7.17884 8.99997C7.17884 9.74664 7.41884 10.3733 7.89884 10.88C8.4055 11.36 9.09884 11.6 9.97884 11.6ZM10.4988 17.6H10.0188C9.03217 17.6 8.19217 17.8666 7.49884 18.4C6.83217 18.9333 6.49884 19.6533 6.49884 20.56C6.49884 21.4666 6.8055 22.1866 7.41884 22.72C8.03217 23.2266 8.95217 23.48 10.1788 23.48C11.4322 23.48 12.3655 23.24 12.9788 22.76C13.6188 22.28 13.9255 21.5466 13.8988 20.56C13.8722 19.6266 13.5522 18.9066 12.9388 18.4C12.3522 17.8666 11.5388 17.6 10.4988 17.6ZM10.2188 29.48C7.23217 29.48 4.8055 28.7866 2.93884 27.4C1.0455 25.9866 0.098835 24.1066 0.098835 21.76C0.098835 20.0533 0.485502 18.5866 1.25884 17.36C2.03217 16.1333 3.07217 15.24 4.37884 14.68V14.56C3.2855 13.9733 2.4055 13.1066 1.73884 11.96C1.09884 10.8133 0.778835 9.46664 0.778835 7.91997C0.778835 5.75997 1.67217 3.98663 3.45884 2.59997C5.2455 1.2133 7.4855 0.519969 10.1788 0.519969C12.8722 0.519969 15.1122 1.2133 16.8988 2.59997C18.7122 4.0133 19.6188 5.78663 19.6188 7.91997C19.6188 9.30664 19.2588 10.6 18.5388 11.8C17.8188 13 16.8455 13.9066 15.6188 14.52V14.64C16.9788 14.9866 18.0988 15.76 18.9788 16.96C19.8588 18.1333 20.2988 19.56 20.2988 21.24C20.2988 23.8266 19.3655 25.8533 17.4988 27.32C15.6055 28.76 13.1788 29.48 10.2188 29.48ZM25.8776 13.44C24.3043 12.0266 23.5176 10.2 23.5176 7.95997C23.5176 5.6933 24.3043 3.8933 25.8776 2.55997C27.4509 1.19997 29.4776 0.519969 31.9576 0.519969C34.4376 0.519969 36.4643 1.19997 38.0376 2.55997C39.6109 3.8933 40.3976 5.6933 40.3976 7.95997C40.3976 10.2 39.6109 12.0266 38.0376 13.44C36.4643 14.8 34.4376 15.48 31.9576 15.48C29.4776 15.48 27.4509 14.8 25.8776 13.44ZM29.1176 7.95997C29.1176 8.8133 29.3843 9.47997 29.9176 9.95997C30.4509 10.44 31.1309 10.68 31.9576 10.68C32.8376 10.68 33.5309 10.44 34.0376 9.95997C34.5443 9.47997 34.7976 8.8133 34.7976 7.95997C34.7976 7.15997 34.5309 6.51997 33.9976 6.03997C33.4909 5.55997 32.8109 5.31997 31.9576 5.31997C31.1043 5.31997 30.4109 5.55997 29.8776 6.03997C29.3709 6.51997 29.1176 7.15997 29.1176 7.95997ZM44.3976 27.44C42.8243 26.0266 42.0376 24.2 42.0376 21.96C42.0376 19.6933 42.8243 17.8933 44.3976 16.56C45.9443 15.2 47.9709 14.52 50.4776 14.52C52.9843 14.52 55.0109 15.2 56.5576 16.56C58.1309 17.8933 58.9176 19.6933 58.9176 21.96C58.9176 24.2 58.1309 26.0266 56.5576 27.44C55.0109 28.8 52.9843 29.48 50.4776 29.48C47.9709 29.48 45.9443 28.8 44.3976 27.44ZM47.6376 21.96C47.6376 22.8133 47.9043 23.48 48.4376 23.96C48.9709 24.44 49.6509 24.68 50.4776 24.68C51.3576 24.68 52.0509 24.44 52.5576 23.96C53.0643 23.48 53.3176 22.8133 53.3176 21.96C53.3176 21.16 53.0509 20.52 52.5176 20.04C52.0109 19.56 51.3309 19.32 50.4776 19.32C49.6243 19.32 48.9309 19.56 48.3976 20.04C47.8909 20.52 47.6376 21.16 47.6376 21.96ZM32.9576 29.48L29.5176 27.12L49.3976 0.519969L52.7576 3.03997L32.9576 29.48Z" fill="#2E2E2E"/>
</svg>
